<?xml version="1.0" standalone="no"?>
<!DOCTYPE svg PUBLIC "-//W3C//DTD SVG 20010904//EN"
 "http://www.w3.org/TR/2001/REC-SVG-20010904/DTD/svg10.dtd">
<svg version="1.0" xmlns="http://www.w3.org/2000/svg"
 width="256.000000pt" height="256.000000pt" viewBox="0 0 256.000000 256.000000"
 preserveAspectRatio="xMidYMid meet">
<metadata>
Created by potrace 1.14, written by Peter Selinger 2001-2017
</metadata>
<g transform="translate(0.000000,256.000000) scale(0.100000,-0.100000)"
fill="#000000" stroke="none">
<path d="M1388 2428 c-119 -123 -212 -281 -248 -425 -11 -42 -19 -77 -18 -79
32 -29 315 -206 389 -243 l101 -51 61 47 c34 26 63 47 64 48 1 0 -38 158 -87
350 -50 193 -90 353 -90 356 0 3 -11 18 -25 33 -42 45 -77 36 -147 -36z"/>
<path d="M51 2439 c-50 -20 -52 -31 -46 -219 3 -96 7 -184 9 -195 2 -11 7 -49
11 -85 4 -36 16 -108 27 -160 77 -364 236 -598 493 -727 100 -51 259 -95 365
-102 8 -1 -6 -15 -32 -31 -92 -58 -310 -93 -433 -69 -27 5 -61 11 -74 14 -51
9 -82 -23 -111 -115 -70 -221 51 -446 320 -593 73 -40 191 -87 219 -87 26 0
157 90 236 162 75 69 139 160 155 220 9 32 14 37 33 33 167 -39 312 -45 415
-18 55 14 133 50 162 75 63 53 111 149 173 348 25 80 54 165 66 190 72 163
192 211 356 145 83 -34 112 -34 143 0 29 34 28 56 -8 167 -69 218 -181 327
-342 334 -79 4 -120 -6 -217 -52 -87 -41 -140 -76 -239 -157 l-74 -60 -54 12
c-105 24 -387 182 -545 306 -14 11 -36 27 -48 35 -12 8 -133 96 -269 195 -239
175 -509 365 -518 365 -2 0 -25 15 -52 34 -55 40 -87 49 -121 35z"/>
</g>
</svg>
